<svg width="53" height="42" viewBox="0 0 53 42" fill="none" xmlns="http://www.w3.org/2000/svg">
<g clip-path="url(#clip0_464_197)">
<path d="M5.84667 5.48882C5.74667 2.63324 7.98395 0 11.0081 0H41.9958C45.0199 0 47.2572 2.63324 47.1572 5.48882C47.0611 8.2319 47.1858 11.7852 48.0851 14.6825C48.9872 17.5887 50.5085 19.4257 53 19.6618V22.3382C50.5085 22.5743 48.9872 24.4113 48.0851 27.3175C47.1858 30.2148 47.0611 33.7681 47.1572 36.5113C47.2572 39.3668 45.0199 42 41.9958 42H11.0081C7.98395 42 5.74667 39.3668 5.84677 36.5113C5.94273 33.7681 5.81799 30.2148 4.91865 27.3175C4.01661 24.4113 2.49162 22.5743 0 22.3382V19.6618C2.49152 19.4257 4.01661 17.5887 4.91865 14.6825C5.81799 11.7852 5.94273 8.2319 5.84667 5.48882V5.48882Z" fill="url(#paint0_linear_464_197)"/>
<g filter="url(#filter0_d_464_197)">
<path d="M27.6493 32.1647C32.5453 32.1647 35.4956 29.7808 35.4956 25.8488C35.4956 22.8765 33.3905 20.7248 30.2648 20.3841V20.2603C32.5612 19.8888 34.3634 17.768 34.3634 15.3995C34.3634 12.0248 31.6842 9.82648 27.6015 9.82648H18.4155V32.1647H27.6493ZM21.9879 12.6594H26.7404C29.3239 12.6594 30.791 13.8049 30.791 15.8793C30.791 18.0931 29.0847 19.3314 25.9908 19.3314H21.9879V12.6594V12.6594ZM21.9879 29.3319V21.9787H26.7084C30.0893 21.9787 31.8436 23.2171 31.8436 25.6321C31.8436 28.047 30.1372 29.3319 26.9157 29.3319H21.9879V29.3319Z" fill="url(#paint1_linear_464_197)"/>
<path d="M27.6493 32.1647C32.5453 32.1647 35.4956 29.7808 35.4956 25.8488C35.4956 22.8765 33.3905 20.7248 30.2648 20.3841V20.2603C32.5612 19.8888 34.3634 17.768 34.3634 15.3995C34.3634 12.0248 31.6842 9.82648 27.6015 9.82648H18.4155V32.1647H27.6493ZM21.9879 12.6594H26.7404C29.3239 12.6594 30.791 13.8049 30.791 15.8793C30.791 18.0931 29.0847 19.3314 25.9908 19.3314H21.9879V12.6594V12.6594ZM21.9879 29.3319V21.9787H26.7084C30.0893 21.9787 31.8436 23.2171 31.8436 25.6321C31.8436 28.047 30.1372 29.3319 26.9157 29.3319H21.9879V29.3319Z" stroke="white"/>
</g>
</g>
<defs>
<filter id="filter0_d_464_197" x="1.91553" y="-2.67352" width="50.0801" height="55.3383" filterUnits="userSpaceOnUse" color-interpolation-filters="sRGB">
<feFlood flood-opacity="0" result="BackgroundImageFix"/>
<feColorMatrix in="SourceAlpha" type="matrix" values="0 0 0 0 0 0 0 0 0 0 0 0 0 0 0 0 0 0 127 0" result="hardAlpha"/>
<feOffset dy="4"/>
<feGaussianBlur stdDeviation="8"/>
<feColorMatrix type="matrix" values="0 0 0 0 0 0 0 0 0 0 0 0 0 0 0 0 0 0 0.15 0"/>
<feBlend mode="normal" in2="BackgroundImageFix" result="effect1_dropShadow_464_197"/>
<feBlend mode="normal" in="SourceGraphic" in2="effect1_dropShadow_464_197" result="shape"/>
</filter>
<linearGradient id="paint0_linear_464_197" x1="7.87536" y1="1.11156" x2="53.9889" y2="37.9207" gradientUnits="userSpaceOnUse">
<stop stop-color="#9013FE"/>
<stop offset="1" stop-color="#6610F2"/>
</linearGradient>
<linearGradient id="paint1_linear_464_197" x1="20.0311" y1="11.2968" x2="30.2981" y2="28.7575" gradientUnits="userSpaceOnUse">
<stop stop-color="white"/>
<stop offset="1" stop-color="#F1E5FC"/>
</linearGradient>
<clipPath id="clip0_464_197">
<rect width="53" height="42" fill="white"/>
</clipPath>
</defs>
</svg>
