<svg width="46" height="46" viewBox="0 0 46 46" fill="none" xmlns="http://www.w3.org/2000/svg">
<path d="M0 0H46V46H0V0Z" fill="#F0DB4F"/>
<path d="M42.2352 35.0291C41.8985 32.9303 40.5299 31.1681 36.4764 29.524C35.0685 28.8768 33.4987 28.4134 33.0308 27.3464C32.8647 26.7255 32.8428 26.3757 32.9477 25.9996C33.2494 24.7797 34.7055 24.3993 35.8599 24.7491C36.6032 24.9983 37.3072 25.5712 37.7314 26.485C39.7166 25.1995 39.7122 25.2082 41.0983 24.325C40.5911 23.5379 40.32 23.1749 39.9877 22.8383C38.7939 21.5046 37.1673 20.8181 34.5656 20.8706C34.1152 20.9274 33.6605 20.9886 33.2101 21.0455C31.9115 21.3734 30.674 22.0556 29.9481 22.9695C27.7706 25.44 28.3915 29.7645 31.0413 31.5442C33.6517 33.5031 37.4865 33.9491 37.9762 35.7813C38.4529 38.0244 36.3278 38.7502 34.2158 38.4923C32.6591 38.1687 31.7934 37.3773 30.8576 35.9387C29.1349 36.9356 29.1349 36.9356 27.3639 37.9545C27.7837 38.8727 28.2253 39.2881 28.9293 40.0839C32.2613 43.464 40.5998 43.2978 42.0953 38.1818C42.1565 38.0069 42.5588 36.835 42.2352 35.0291V35.0291ZM25.0071 21.1417H20.7044C20.7044 24.8584 20.6869 28.5489 20.6869 32.2656C20.6869 34.6312 20.8094 36.8 20.4246 37.4647C19.7949 38.772 18.1639 38.6103 17.4206 38.3566C16.6641 37.985 16.2793 37.4559 15.8333 36.7082C15.7109 36.494 15.6191 36.3278 15.5884 36.3147C14.421 37.0274 13.2578 37.7445 12.0903 38.4573C12.6719 39.651 13.5289 40.6873 14.6265 41.3606C16.2662 42.3445 18.47 42.6462 20.7744 42.1171C22.2742 41.6798 23.5685 40.7748 24.2462 39.3974C25.2257 37.5915 25.0158 35.4052 25.0071 32.9871C25.0289 29.043 25.0071 25.0989 25.0071 21.1417Z" fill="#323330"/>
</svg>
