<svg width="21" height="45" viewBox="0 0 21 45" fill="none" xmlns="http://www.w3.org/2000/svg">
<path d="M9.96542 0.122864L11.1663 2.37832C11.4363 2.79454 11.7287 3.16295 12.0732 3.50605C13.0832 4.50346 14.0247 5.568 14.8911 6.69237C16.9258 9.36404 18.2982 12.331 19.2783 15.5398C19.8661 17.5 20.1853 19.5108 20.2092 21.5441C20.3076 27.6228 18.2237 32.8424 14.0222 37.1804C13.3387 37.8683 12.6004 38.4994 11.8145 39.0674C11.3983 39.0674 11.2014 38.7482 11.0299 38.4544C10.7175 37.9094 10.5096 37.3109 10.4168 36.6896C10.2692 35.9542 10.1721 35.2188 10.2199 34.4595V34.1164C10.1862 34.0433 9.81919 0.29582 9.96542 0.122864V0.122864Z" fill="#599636"/>
<path d="M9.96545 0.0483756C9.91624 -0.0500545 9.86703 0.0244711 9.81781 0.0722801C9.84171 0.564431 9.67016 1.00315 9.40159 1.42218C9.1063 1.8384 8.71539 2.15759 8.32308 2.50069C6.14355 4.38774 4.42806 6.6671 3.05425 9.21644C1.22627 12.6474 0.284149 16.3245 0.0169816 20.1956C-0.105353 21.5919 0.458511 26.519 0.898634 27.9407C2.09948 31.7147 4.25651 34.8772 7.05052 37.622C7.73672 38.2828 8.47072 38.8959 9.23004 39.4851C9.45081 39.4851 9.47471 39.2882 9.52533 39.142C9.62212 38.8291 9.69591 38.5095 9.7461 38.1858L10.2382 34.5102L9.96545 0.0483756Z" fill="#6CAC48"/>
<path d="M11.1662 40.5608C11.2155 39.9984 11.4854 39.5315 11.7793 39.0661C11.484 38.9437 11.2647 38.7005 11.0931 38.4291C10.9452 38.1721 10.8227 37.9013 10.7275 37.6206C10.3844 36.5913 10.3113 35.5114 10.2129 34.4596V33.8226C10.0905 33.921 10.0652 34.7534 10.0652 34.8772C9.99368 35.9888 9.84616 37.0943 9.6237 38.1858C9.55058 38.6274 9.50137 39.0675 9.22998 39.4598C9.22998 39.509 9.22998 39.5582 9.25389 39.6314C9.69541 40.9306 9.81634 42.2538 9.89087 43.6023V44.0945C9.89087 44.6822 9.86696 44.5585 10.3549 44.7553C10.5518 44.8285 10.7711 44.8538 10.968 45C11.1156 45 11.1395 44.8777 11.1395 44.7792L11.0664 43.9707V41.7153C11.0425 41.3215 11.1156 40.9306 11.1648 40.5622L11.1662 40.5608Z" fill="#C2BFBF"/>
</svg>
