<svg width="39" height="44" viewBox="0 0 39 44" fill="none" xmlns="http://www.w3.org/2000/svg">
<path d="M17.7447 0.55857C18.8051 -0.063203 20.1862 -0.0660115 21.2457 0.55857C26.5758 3.64388 31.9076 6.72434 37.2368 9.81152C38.2391 10.3899 38.9096 11.5327 38.8994 12.7158V31.2782C38.9069 32.5104 38.1701 33.6804 37.1126 34.2457C31.8001 37.314 26.4902 40.3861 21.1785 43.4544C20.0962 44.0883 18.6874 44.0395 17.6388 43.3536C16.0461 42.4077 14.4507 41.4666 12.8578 40.5217C12.5323 40.3229 12.1654 40.1647 11.9356 39.8414C12.1388 39.5608 12.502 39.5259 12.7972 39.4034C13.462 39.1868 14.0727 38.8392 14.6834 38.5019C14.8379 38.3936 15.0264 38.4351 15.1745 38.532C16.5364 39.3319 17.8864 40.1551 19.2529 40.9475C19.5444 41.1199 19.8396 40.891 20.0888 40.7487C25.302 37.7303 30.5217 34.7233 35.7341 31.704C35.9272 31.6088 36.034 31.3988 36.0183 31.1821C36.022 25.0588 36.0192 18.9343 36.0201 12.811C36.0422 12.5651 35.9033 12.339 35.6863 12.2384C30.3921 9.18413 25.1007 6.1252 19.8074 3.07016C19.7157 3.00557 19.6071 2.97092 19.4958 2.97075C19.3845 2.97058 19.2758 3.00491 19.1839 3.06922C13.8906 6.1252 8.60014 9.18694 3.3069 12.241C3.09062 12.3418 2.94546 12.5642 2.9712 12.811C2.97212 18.9343 2.9712 25.0588 2.9712 31.183C2.96203 31.2888 2.9847 31.3949 3.03617 31.487C3.08763 31.5792 3.16543 31.6529 3.25907 31.6984C4.6716 32.519 6.08595 33.3337 7.49939 34.1515C8.29567 34.5905 9.27335 34.8514 10.1507 34.515C10.9249 34.2306 11.4675 33.4213 11.4528 32.5792C11.4601 26.4916 11.4491 20.403 11.4582 14.3164C11.4389 14.0461 11.6891 13.8229 11.9456 13.8483C12.6243 13.8436 13.3039 13.8389 13.9826 13.8502C14.2659 13.8436 14.4609 14.1346 14.4259 14.4069C14.4231 20.533 14.4332 26.6593 14.4213 32.7855C14.4231 34.4181 13.7683 36.1947 12.2941 36.9935C10.478 37.9573 8.23322 37.7529 6.43901 36.8288C4.88575 36.0346 3.40346 35.0973 1.87777 34.2465C0.817535 33.6843 0.0844648 32.5096 0.091928 31.2784V12.7158C0.0808093 11.5082 0.777934 10.3447 1.81151 9.7747C7.12319 6.70391 12.4339 3.63077 17.7447 0.55857Z" fill="#8CC84B"/>
<path d="M22.3785 13.4169C24.6951 13.2641 27.1752 13.3264 29.2599 14.4955C30.8739 15.3914 31.7687 17.2717 31.7972 19.1087C31.7521 19.3564 31.4993 19.4931 31.2684 19.4761C30.5962 19.4752 29.9239 19.4855 29.2518 19.4714C28.9667 19.4827 28.801 19.2133 28.7652 18.9551C28.572 18.0762 28.1041 17.2057 27.2966 16.7818C26.0569 16.146 24.6196 16.178 23.2678 16.1912C22.281 16.2449 21.2199 16.3324 20.3838 16.9269C19.742 17.3772 19.547 18.2862 19.7761 19.0183C19.9921 19.544 20.5844 19.7136 21.0691 19.8699C23.8609 20.6179 26.8194 20.5435 29.5579 21.5279C30.6917 21.9292 31.8009 22.7093 32.189 23.9254C32.6966 25.5553 32.4741 27.5034 31.3421 28.8119C30.4241 29.8887 29.0872 30.4747 27.7537 30.793C25.9797 31.1982 24.1387 31.2085 22.3372 31.0286C20.6432 30.8308 18.8804 30.3748 17.5726 29.1925C16.4544 28.1978 15.9082 26.6479 15.9624 25.1521C15.9754 24.8995 16.2209 24.7233 16.4571 24.7441C17.134 24.7385 17.8109 24.7366 18.4877 24.745C18.7581 24.7252 18.9585 24.9646 18.9724 25.2256C19.0973 26.063 19.4045 26.9419 20.1173 27.4384C21.493 28.3476 23.2191 28.2853 24.7943 28.3107C26.0993 28.2514 27.5642 28.2335 28.6292 27.3499C29.191 26.8459 29.3575 26.0028 29.2057 25.2774C29.0412 24.665 28.4158 24.3796 27.8787 24.193C25.1227 23.2999 22.1311 23.624 19.4017 22.614C18.2937 22.2128 17.2222 21.4544 16.7965 20.2882C16.2025 18.6378 16.4746 16.5963 17.7253 15.332C18.9447 14.0744 20.7049 13.5901 22.3785 13.4167V13.4169Z" fill="#8CC84B"/>
</svg>
