<svg width="42" height="46" viewBox="0 0 42 46" fill="none" xmlns="http://www.w3.org/2000/svg">
<path d="M42 24.0043C42 21.2137 38.5157 18.5691 33.1737 16.9291C34.4064 11.4682 33.8585 7.12346 31.4444 5.73247C30.8879 5.40618 30.2373 5.25163 29.5267 5.25163V7.16639C29.9205 7.16639 30.2373 7.24367 30.5026 7.38964C31.6669 8.05937 32.172 10.6095 31.7782 13.8895C31.6841 14.6966 31.53 15.5467 31.3416 16.4139C29.6637 16.0018 27.8316 15.6841 25.9054 15.478C24.7497 13.8895 23.5512 12.447 22.3441 11.1848C25.1349 8.58314 27.7546 7.1578 29.5353 7.1578V5.24304C27.181 5.24304 24.0991 6.92597 20.9829 9.84534C17.8667 6.94315 14.7848 5.27739 12.4305 5.27739V7.19215C14.2026 7.19215 16.8308 8.6089 19.6217 11.1934C18.4232 12.4556 17.2246 13.8895 16.086 15.478C14.1512 15.6841 12.3192 16.0018 10.6413 16.4225C10.4444 15.5639 10.2988 14.731 10.1961 13.9325C9.79372 10.6525 10.2903 8.10231 11.446 7.42398C11.7028 7.26943 12.0367 7.20074 12.4305 7.20074V5.28597C11.7114 5.28597 11.0607 5.44053 10.4957 5.76681C8.09009 7.1578 7.55075 11.4939 8.79209 16.9377C3.46718 18.5863 0 21.2223 0 24.0043C0 26.7949 3.4843 29.4395 8.82633 31.0795C7.59356 36.5404 8.14146 40.8851 10.5556 42.2761C11.1121 42.6024 11.7627 42.7569 12.4819 42.7569C14.8361 42.7569 17.9181 41.074 21.0342 38.1546C24.1504 41.0568 27.2324 42.7226 29.5866 42.7226C30.3057 42.7226 30.9564 42.568 31.5214 42.2417C33.927 40.8508 34.4664 36.5146 33.225 31.0709C38.5328 29.4309 42 26.7863 42 24.0043V24.0043ZM30.8536 18.2772C30.5369 19.3848 30.1431 20.5268 29.6979 21.6688C29.3469 20.9819 28.9788 20.295 28.5764 19.6081C28.1826 18.9211 27.7631 18.2514 27.3437 17.5988C28.5593 17.7792 29.7322 18.0024 30.8536 18.2772ZM26.9327 27.4217C26.265 28.5808 25.5801 29.6799 24.8695 30.7017C23.594 30.8133 22.3013 30.8734 21 30.8734C19.7073 30.8734 18.4146 30.8133 17.1476 30.7102C16.437 29.6885 15.7436 28.598 15.0758 27.4474C14.4252 26.3226 13.8345 25.1806 13.2951 24.03C13.8259 22.8795 14.4252 21.7289 15.0673 20.6041C15.735 19.4449 16.4199 18.3459 17.1305 17.3241C18.406 17.2125 19.6987 17.1523 21 17.1523C22.2927 17.1523 23.5854 17.2125 24.8524 17.3155C25.563 18.3373 26.2564 19.4277 26.9242 20.5783C27.5748 21.7031 28.1655 22.8451 28.7049 23.9957C28.1655 25.1463 27.5748 26.2968 26.9327 27.4217ZM29.6979 26.3054C30.1602 27.456 30.554 28.6066 30.8793 29.7228C29.7578 29.9976 28.5764 30.2294 27.3522 30.4097C27.7717 29.7486 28.1912 29.0702 28.585 28.3747C28.9788 27.6878 29.3469 26.9923 29.6979 26.3054ZM21.0171 35.4671C20.221 34.6428 19.4248 33.7241 18.6372 32.7195C19.4077 32.7538 20.1953 32.7796 20.9914 32.7796C21.7962 32.7796 22.5923 32.7624 23.3714 32.7195C22.6009 33.7241 21.8047 34.6428 21.0171 35.4671ZM14.6478 30.4097C13.4321 30.2294 12.2593 30.0062 11.1378 29.7314C11.4545 28.6238 11.8483 27.4818 12.2935 26.3398C12.6445 27.0267 13.0126 27.7136 13.415 28.4005C13.8174 29.0874 14.2283 29.7572 14.6478 30.4097ZM20.9743 12.5415C21.7705 13.3658 22.5667 14.2845 23.3543 15.2891C22.5838 15.2548 21.7962 15.229 21 15.229C20.1953 15.229 19.3991 15.2462 18.6201 15.2891C19.3905 14.2845 20.1867 13.3658 20.9743 12.5415ZM14.6392 17.5988C14.2197 18.26 13.8002 18.9383 13.4064 19.6338C13.0126 20.3207 12.6445 21.0076 12.2935 21.6945C11.8312 20.544 11.4374 19.3934 11.1121 18.2772C12.2336 18.011 13.415 17.7792 14.6392 17.5988V17.5988ZM6.89156 28.349C3.86099 27.0524 1.90053 25.3523 1.90053 24.0043C1.90053 22.6562 3.86099 20.9475 6.89156 19.6596C7.6278 19.3419 8.43253 19.0585 9.26294 18.7923C9.75092 20.4753 10.393 22.2269 11.1892 24.0215C10.4015 25.8074 9.76804 27.5505 9.28863 29.2248C8.44109 28.9586 7.63636 28.6667 6.89156 28.349ZM11.4974 40.6189C10.3331 39.9492 9.82797 37.399 10.2218 34.119C10.3159 33.3119 10.47 32.4619 10.6584 31.5946C12.3363 32.0068 14.1684 32.3245 16.0946 32.5306C17.2503 34.119 18.4488 35.5615 19.6559 36.8237C16.8651 39.4254 14.2454 40.8508 12.4647 40.8508C12.0795 40.8422 11.7542 40.7649 11.4974 40.6189V40.6189ZM31.8039 34.0761C32.2063 37.3561 31.7097 39.9063 30.554 40.5846C30.2972 40.7391 29.9633 40.8078 29.5695 40.8078C27.7974 40.8078 25.1692 39.3911 22.3783 36.8066C23.5768 35.5444 24.7754 34.1104 25.914 32.522C27.8488 32.3159 29.6808 31.9982 31.3587 31.5775C31.5556 32.4447 31.7097 33.2776 31.8039 34.0761V34.0761ZM35.0999 28.349C34.3636 28.6667 33.5589 28.95 32.7285 29.2162C32.2405 27.5333 31.5985 25.7817 30.8023 23.9871C31.5899 22.2011 32.2234 20.4581 32.7028 18.7838C33.5503 19.0499 34.3551 19.3419 35.1084 19.6596C38.139 20.9561 40.0995 22.6562 40.0995 24.0043C40.0909 25.3523 38.1305 27.061 35.0999 28.349V28.349Z" fill="#A561FB"/>
<path d="M20.9915 27.9283C23.1522 27.9283 24.9038 26.1715 24.9038 24.0043C24.9038 21.8371 23.1522 20.0803 20.9915 20.0803C18.8307 20.0803 17.0791 21.8371 17.0791 24.0043C17.0791 26.1715 18.8307 27.9283 20.9915 27.9283Z" fill="#A561FB"/>
</svg>
