<svg width="24" height="24" viewBox="0 0 24 24" fill="none" xmlns="http://www.w3.org/2000/svg">
<path fill-rule="evenodd" clip-rule="evenodd" d="M10.3878 0.100594C6.47821 0.589016 2.76636 3.3266 1.08772 6.95978C-0.362575 10.0987 -0.362575 13.9139 1.08772 17.0528C2.19552 19.4505 4.37551 21.6646 6.75112 22.8048C10.7667 24.7321 15.568 24.3026 19.0558 21.7041C25.1517 17.1623 25.6962 8.49998 20.213 3.2926C17.558 0.771066 14.0763 -0.360035 10.3878 0.100594ZM13.4349 2.05877C15.4945 2.36921 17.2739 3.2274 18.7533 4.62361C20.4412 6.21662 21.4899 8.12038 21.874 10.2888C22.0183 11.1038 22.0183 12.9087 21.874 13.7237C21.6247 15.1313 20.9674 16.6864 20.1121 17.8924C19.0608 19.3746 16.9946 20.9574 15.4852 21.4367C14.5684 21.7279 14.5662 21.7234 14.5034 19.4771C14.4535 17.6902 14.4316 17.5264 14.1731 17.0047L13.8964 16.4458L14.28 16.3832C16.2832 16.0562 17.6149 15.0562 18.0935 13.5196C18.188 13.2165 18.2908 12.5083 18.3219 11.9459C18.3866 10.7761 18.2205 10.0153 17.7496 9.32546C17.4842 8.93656 17.4627 8.82111 17.4533 7.73031C17.4407 6.27188 17.3347 6.02334 16.7658 6.1188C16.5504 6.15494 15.9341 6.40316 15.396 6.67051C14.4406 7.14514 14.4072 7.15327 13.9529 7.02071C13.3265 6.83802 10.7589 6.8346 10.0567 7.01547C9.52472 7.15252 9.49821 7.14803 8.95442 6.82744C8.39213 6.49584 7.27739 6.07337 6.96503 6.07337C6.63888 6.07337 6.45587 6.79109 6.51114 7.85314C6.55999 8.79235 6.54983 8.84922 6.25565 9.2873C5.83147 9.91886 5.6305 10.6726 5.63243 11.6249C5.63756 14.2447 6.82574 15.7709 9.26913 16.296L10.0911 16.4726L9.83986 16.912C9.70175 17.1536 9.58811 17.4547 9.58737 17.5813C9.58576 17.8708 9.1246 18.0463 8.36754 18.0455C7.67612 18.0448 7.1412 17.7341 6.65545 17.051C6.22422 16.4443 5.85745 16.1414 5.39329 16.0082C4.66937 15.8006 4.41966 16.1643 5.02802 16.5403C5.42804 16.7876 5.81458 17.3075 6.16959 18.0759C6.44828 18.6791 7.0173 19.1831 7.5968 19.3397C7.82556 19.4016 8.34445 19.4364 8.74971 19.4173L9.48677 19.3823L9.4562 20.3865C9.41879 21.619 9.34064 21.7046 8.49742 21.4367C6.98801 20.9574 4.92187 19.3746 3.87052 17.8924C3.01522 16.6864 2.3579 15.1313 2.10861 13.7237C1.9643 12.9087 1.9643 11.1038 2.10861 10.2888C2.4927 8.12038 3.54138 6.21662 5.22931 4.62361C6.67469 3.25946 8.47711 2.37541 10.4413 2.06754C11.6511 1.87779 12.2235 1.87608 13.4349 2.05877Z" fill="url(#paint0_linear_476_88)"/>
<defs>
<linearGradient id="paint0_linear_476_88" x1="2.99317" y1="4.16907" x2="19.3487" y2="20.2039" gradientUnits="userSpaceOnUse">
<stop stop-color="#060606"/>
<stop offset="1" stop-color="#160044"/>
</linearGradient>
</defs>
</svg>
