<svg width="33" height="45" viewBox="0 0 33 45" fill="none" xmlns="http://www.w3.org/2000/svg">
<path d="M8.25178 45C12.8049 45 16.5001 41.64 16.5001 37.5V30H8.25178C3.69868 30 0.00341797 33.36 0.00341797 37.5C0.00341797 41.64 3.69868 45 8.25178 45Z" fill="#0ACF83"/>
<path d="M0.00341797 22.5C0.00341797 18.36 3.69868 15 8.25178 15H16.5001V30H8.25178C3.69868 30 0.00341797 26.64 0.00341797 22.5Z" fill="#A259FF"/>
<path d="M0.00341797 7.50005C0.00341797 3.36006 3.69868 6.10352e-05 8.25178 6.10352e-05H16.5001V15H8.25178C3.69868 15 0.00341797 11.64 0.00341797 7.50005Z" fill="#F24E1E"/>
<path d="M16.5 6.10352e-05H24.7484C29.3015 6.10352e-05 32.9968 3.36006 32.9968 7.50005C32.9968 11.64 29.3015 15 24.7484 15H16.5V6.10352e-05Z" fill="#FF7262"/>
<path d="M32.9968 22.5C32.9968 26.64 29.3015 30 24.7484 30C20.1953 30 16.5 26.64 16.5 22.5C16.5 18.36 20.1953 15 24.7484 15C29.3015 15 32.9968 18.36 32.9968 22.5Z" fill="#1ABCFE"/>
</svg>
