<svg width="24" height="24" viewBox="0 0 24 24" fill="none" xmlns="http://www.w3.org/2000/svg">
<path fill-rule="evenodd" clip-rule="evenodd" d="M16.6443 0.0539034C16.026 0.165248 15.6173 0.284695 15.1188 0.499648C14.0782 0.948445 13.7099 1.24943 11.5467 3.41796L9.73658 5.23267L10.5579 5.20268C11.6639 5.16232 12.5584 5.28776 13.4859 5.61338L13.7726 5.71404L14.7745 4.72241C15.6562 3.84981 15.8238 3.70779 16.171 3.53951C16.6854 3.29009 17.098 3.1888 17.5996 3.1888C18.1274 3.1888 18.4737 3.26441 18.9539 3.48458C20.0974 4.00888 20.7965 5.10386 20.7988 6.37442C20.7997 6.88973 20.701 7.29869 20.4499 7.81937C20.2693 8.19366 20.1277 8.34636 17.7024 10.7821C16.296 12.1945 15.0162 13.4363 14.8583 13.5415C14.7005 13.6467 14.3691 13.8043 14.1219 13.8917C13.7214 14.0334 13.6096 14.0502 13.094 14.0464C12.6128 14.0429 12.4508 14.0193 12.1315 13.9061C11.2808 13.6045 10.6443 13.0441 10.2729 12.2698C10.1539 12.0216 10.0316 11.8185 10.0012 11.8185C9.95412 11.8185 7.70487 13.9985 7.66221 14.0854C7.62061 14.1702 8.24384 15.0037 8.64259 15.3967C9.87017 16.6063 11.3985 17.2377 13.1002 17.2382C14.4334 17.2386 15.7229 16.835 16.8021 16.0798C17.2878 15.7399 22.3871 10.6554 22.791 10.1083C23.1257 9.65481 23.532 8.83589 23.7176 8.24033C24.3962 6.06238 23.8292 3.63349 22.2606 1.9989C21.3065 1.00475 20.2243 0.395513 18.8975 0.105629C18.3744 -0.00866193 17.1481 -0.0368137 16.6443 0.0539034ZM9.56989 6.89457C8.71028 7.0739 7.96891 7.38894 7.22928 7.88914C6.95135 8.0771 6.0759 8.91076 4.26637 10.7107C2.85374 12.1159 1.55873 13.4376 1.38852 13.6478C0.789005 14.3884 0.383999 15.2117 0.139891 16.186C0.0188106 16.6693 0.00129537 16.8471 3.30175e-05 17.6067C-0.00101894 18.2533 0.0229132 18.5864 0.0938155 18.9115C0.378582 20.217 0.955688 21.2716 1.87247 22.1621C2.86495 23.1261 3.81471 23.6298 5.20425 23.9291C5.68663 24.033 7.05691 24.0203 7.58126 23.907C8.13223 23.788 8.74763 23.5821 9.14911 23.3825C9.981 22.9688 10.2995 22.6987 12.2943 20.7151L14.2297 18.7907L13.1358 18.789C11.9565 18.7873 11.4477 18.7143 10.5884 18.4234L10.2025 18.2928L9.22874 19.258C8.14874 20.3285 7.86145 20.5293 7.1498 20.7115C5.54693 21.1216 3.89608 20.2496 3.35227 18.7055C3.24949 18.4136 3.20957 18.1798 3.19179 17.7646C3.16402 17.1162 3.24371 16.7391 3.5301 16.1642C3.70026 15.8227 3.93364 15.5728 6.30102 13.1968C8.00341 11.4881 8.98505 10.5417 9.17593 10.425C9.3353 10.3275 9.65484 10.182 9.88601 10.1018C10.2492 9.97585 10.3848 9.95638 10.8848 9.95848C11.3825 9.96064 11.5186 9.98127 11.8579 10.1062C12.4173 10.3123 12.7978 10.5575 13.1614 10.9464C13.4507 11.2557 13.8566 11.9381 13.8566 12.115C13.8566 12.3137 14.1325 12.0904 15.1862 11.0394L16.3365 9.89197L16.0602 9.47396C15.7267 8.96933 15.076 8.30853 14.5399 7.93003C13.1079 6.91893 11.2791 6.53797 9.56989 6.89457Z" fill="#9C9C9C"/>
</svg>
