<svg width="46" height="46" viewBox="0 0 46 46" fill="none" xmlns="http://www.w3.org/2000/svg">
<path d="M0 23V0H46V46H0" fill="#007ACC"/>
<path d="M10.0854 23.0805V24.955H16.0655V41.975H20.309V24.955H26.2891V23.115C26.2891 22.08 26.2891 21.2405 26.2431 21.2175C26.2431 21.183 22.5975 21.1715 18.17 21.1715L10.1199 21.206V23.092L10.0854 23.0805V23.0805ZM36.9611 21.16C38.1342 21.436 39.0312 21.965 39.8362 22.8045C40.2617 23.2645 40.8942 24.0695 40.9402 24.2765C40.9402 24.3455 38.9507 25.691 37.7432 26.4385C37.6972 26.473 37.5131 26.2775 37.3291 25.9785C36.7311 25.1275 36.1216 24.7595 35.1671 24.6905C33.7871 24.5985 32.8671 25.323 32.8671 26.5305C32.8671 26.8985 32.9361 27.1055 33.0741 27.4045C33.3846 28.037 33.9596 28.4165 35.7421 29.1985C39.0312 30.613 40.4572 31.5445 41.3197 32.8785C42.2972 34.3735 42.5157 36.7195 41.8602 38.479C41.1242 40.3995 39.3302 41.699 36.7656 42.1245C35.9606 42.2625 34.1206 42.2395 33.2581 42.09C31.4181 41.745 29.6586 40.825 28.5776 39.6405C28.1521 39.1805 27.3356 37.95 27.3816 37.8695L27.8186 37.5935L29.5436 36.593L30.8431 35.834L31.1421 36.2365C31.5216 36.8345 32.3726 37.6395 32.8671 37.9155C34.3621 38.686 36.3631 38.5825 37.3521 37.6855C37.7776 37.2945 37.9617 36.8805 37.9617 36.3055C37.9617 35.7765 37.8812 35.535 37.6167 35.1325C37.2486 34.6265 36.5126 34.2125 34.4426 33.2925C32.0621 32.2805 31.0501 31.6365 30.1071 30.6475C29.5666 30.0495 29.0721 29.118 28.8421 28.3475C28.6696 27.6805 28.6121 26.0475 28.7731 25.392C29.2676 23.092 31.0041 21.482 33.4881 21.022C34.2931 20.861 36.1906 20.93 36.9841 21.137L36.9611 21.16V21.16Z" fill="white"/>
</svg>
